<svg xmlns="http://www.w3.org/2000/svg" width="20.55" height="20.55" viewBox="0 0 20.55 20.55">
  <g id="Group_2812" data-name="Group 2812" transform="translate(-1301.809 -1302.498)">
    <path id="Path_1880" data-name="Path 1880" d="M1303.45,1321.407h0a5.637,5.637,0,0,1,0-7.952l2.673-2.673a5.637,5.637,0,0,1,7.952,0h0a5.579,5.579,0,0,1,1.144,1.655,2.035,2.035,0,0,1-2.269.023,3.6,3.6,0,0,0-.262-.292h0a3.675,3.675,0,0,0-5.178,0l-2.673,2.673a3.675,3.675,0,0,0,0,5.179h0a3.675,3.675,0,0,0,5.178,0l2.2-2.2a7.312,7.312,0,0,0,1.852.238q.3,0,.6-.025a5.62,5.62,0,0,1-.595.7l-2.673,2.673a5.637,5.637,0,0,1-7.952,0Zm17.267-17.267a5.636,5.636,0,0,0-7.952,0l-2.673,2.673a5.612,5.612,0,0,0-.595.7q.3-.025.6-.025a7.315,7.315,0,0,1,1.852.238l2.2-2.2a3.674,3.674,0,0,1,5.178,0h0a3.674,3.674,0,0,1,0,5.178l-2.673,2.673a3.675,3.675,0,0,1-5.178,0h0a3.715,3.715,0,0,1-.262-.292,2.034,2.034,0,0,0-2.269.023,5.582,5.582,0,0,0,1.144,1.655h0a5.637,5.637,0,0,0,7.952,0l2.673-2.673a5.637,5.637,0,0,0,0-7.952Z" fill="#464545" fill-rule="evenodd"/>
  </g>
</svg>
