<svg id="No" xmlns="http://www.w3.org/2000/svg" width="29.914" height="29.914" viewBox="0 0 29.914 29.914">
  <g id="Path_216" data-name="Path 216" fill="none">
    <path d="M14.957,0A14.957,14.957,0,1,1,0,14.957,14.957,14.957,0,0,1,14.957,0Z" stroke="none"/>
    <path d="M 14.95703125 1.000001907348633 C 11.22897148132324 1.000001907348633 7.724050521850586 2.451780319213867 5.087921142578125 5.087921142578125 C 2.451780319213867 7.724050521850586 1.000001907348633 11.22897148132324 1.000001907348633 14.95703125 C 1.000001907348633 18.68509101867676 2.451780319213867 22.19001007080078 5.087921142578125 24.82614135742188 C 7.724050521850586 27.4622802734375 11.22897148132324 28.91406059265137 14.95703125 28.91406059265137 C 18.68509101867676 28.91406059265137 22.19001007080078 27.4622802734375 24.82614135742188 24.82614135742188 C 27.4622802734375 22.19001007080078 28.91406059265137 18.68509101867676 28.91406059265137 14.95703125 C 28.91406059265137 11.22897148132324 27.4622802734375 7.724050521850586 24.82614135742188 5.087921142578125 C 22.19001007080078 2.451780319213867 18.68509101867676 1.000001907348633 14.95703125 1.000001907348633 M 14.95703125 1.9073486328125e-06 C 23.21757125854492 1.9073486328125e-06 29.91406059265137 6.696491241455078 29.91406059265137 14.95703125 C 29.91406059265137 23.21757125854492 23.21757125854492 29.91406059265137 14.95703125 29.91406059265137 C 6.696491241455078 29.91406059265137 1.9073486328125e-06 23.21757125854492 1.9073486328125e-06 14.95703125 C 1.9073486328125e-06 6.696491241455078 6.696491241455078 1.9073486328125e-06 14.95703125 1.9073486328125e-06 Z" stroke="none" fill="#464545"/>
  </g>
  <g id="Symbol_85_1" data-name="Symbol 85 – 1" transform="translate(-1057.043 -303.043)">
    <path id="Union_3" data-name="Union 3" d="M5.8,6.861l-4.75,4.75L0,10.554,4.749,5.8,0,1.055,1.055,0,5.8,4.749,10.554,0,11.61,1.055,6.861,5.8l4.75,4.749L10.554,11.61Z" transform="translate(1065.973 311.973)" fill="#464545"/>
  </g>
</svg>
