<svg id="filter_icon" data-name="filter icon" xmlns="http://www.w3.org/2000/svg" width="20.507" height="18.405" viewBox="0 0 20.507 18.405">
  <path id="Path_708" data-name="Path 708" d="M346.129,53.311a3.431,3.431,0,0,1-2.63,3.328v4.6a.789.789,0,0,1-1.578,0v-4.6a3.421,3.421,0,0,1,0-6.656V44.409a.789.789,0,0,1,1.578,0v5.574A3.431,3.431,0,0,1,346.129,53.311Zm-3.419-1.841a1.841,1.841,0,1,0,1.841,1.841A1.843,1.843,0,0,0,342.711,51.47Z" transform="translate(-325.622 -43.62)" fill="#424242"/>
  <path id="Path_709" data-name="Path 709" d="M336.672,53.146v8.091a.789.789,0,0,1-1.578,0V53.146a3.421,3.421,0,0,1,0-6.656V44.409a.789.789,0,0,1,1.578,0V46.49a3.421,3.421,0,0,1,0,6.656Zm-.789-5.169a1.841,1.841,0,1,0,1.841,1.841A1.843,1.843,0,0,0,335.883,47.977Z" transform="translate(-325.63 -43.62)" fill="#424242"/>
  <path id="Path_710" data-name="Path 710" d="M332.473,56.278a3.431,3.431,0,0,1-2.63,3.328v1.63a.789.789,0,1,1-1.578,0v-1.63a3.421,3.421,0,0,1,0-6.656V44.409a.789.789,0,1,1,1.578,0V52.95A3.431,3.431,0,0,1,332.473,56.278Zm-3.419-1.841a1.841,1.841,0,1,0,1.841,1.841A1.843,1.843,0,0,0,329.055,54.438Z" transform="translate(-325.637 -43.62)" fill="#424242"/>
</svg>
