<svg xmlns="http://www.w3.org/2000/svg" width="23.033" height="21.01" viewBox="0 0 23.033 21.01">
  <path id="like_icon" data-name="like icon" d="M123.476,761.447a6.427,6.427,0,0,0-4.761-2.1,5.991,5.991,0,0,0-3.744,1.316,7.565,7.565,0,0,0-1.115,1.088,7.571,7.571,0,0,0-1.116-1.088,6.053,6.053,0,0,0-3.768-1.316,6.333,6.333,0,0,0-4.736,2.1,7.6,7.6,0,0,0-1.884,5.139,8.887,8.887,0,0,0,2.305,5.8,51.152,51.152,0,0,0,5.529,5.315l.1.076c.743.633,1.562,1.367,2.405,2.127a1.818,1.818,0,0,0,1.165.456,1.694,1.694,0,0,0,1.165-.456c.892-.784,1.761-1.544,2.529-2.2a48.7,48.7,0,0,0,5.529-5.29,8.966,8.966,0,0,0,2.305-5.8A8.019,8.019,0,0,0,123.476,761.447Zm-.348,5.139a6.664,6.664,0,0,1-1.785,4.354,48.634,48.634,0,0,1-5.256,5.038l-.124.076c-.645.557-1.364,1.189-2.133,1.873-.743-.657-1.488-1.291-2.132-1.873l-.1-.076a44.318,44.318,0,0,1-5.256-5.038,6.669,6.669,0,0,1-1.785-4.354,5.259,5.259,0,0,1,1.289-3.6,4.216,4.216,0,0,1,3.124-1.366,3.743,3.743,0,0,1,2.38.835,6.045,6.045,0,0,1,1.388,1.62,1.329,1.329,0,0,0,2.207,0,5.635,5.635,0,0,1,1.388-1.62,4.057,4.057,0,0,1,5.5.531A5.382,5.382,0,0,1,123.128,766.586Z" transform="translate(-102.352 -759.346)" fill="#424242"/>
</svg>
