<svg xmlns="http://www.w3.org/2000/svg" width="15.015" height="28" viewBox="0 0 15.015 28">
  <path id="facebook_logo" data-name="facebook logo" d="M166.055,418.348c-.4,0-1.8-.2-3.6-.2a6.569,6.569,0,0,0-4.9,1.8c-2.1,2.2-2,5.7-1.9,7.3v.6h-2.8a1,1,0,0,0-1,1v4.6a1,1,0,0,0,1,1h2.8v10.7a1,1,0,0,0,1,1h4.6a1,1,0,0,0,1-1v-10.6h2.6a1.063,1.063,0,0,0,1-.9l.6-4.6a1.884,1.884,0,0,0-.2-.8,1.136,1.136,0,0,0-.8-.3h-3.2v-1.6c0-.8,0-1.3.2-1.5s.5-.2,1-.2h1.2c.8,0,1.5.1,1.9-.3a.908.908,0,0,0,.3-.7v-4.3A.9.9,0,0,0,166.055,418.348Zm-5.7,7.4v3.2a1,1,0,0,0,1,1h3l-.3,2.6h-2.7a1,1,0,0,0-1,1v10.6h-2.6v-10.6a1,1,0,0,0-1-1h-2.7v-2.6h2.8a1,1,0,0,0,1-1v-3.6c0-3.2,1.7-5.1,4.7-5.1,1,0,1.9.1,2.4.1v2.2h-.5c-.9,0-2.3-.1-3.2.8A2.953,2.953,0,0,0,160.355,425.748Z" transform="translate(-151.855 -418.148)" fill="#424242"/>
</svg>
