<svg id="gallary_icon" data-name="gallary icon" xmlns="http://www.w3.org/2000/svg" width="27.96" height="27.96" viewBox="0 0 27.96 27.96">
  <path id="Path_273" data-name="Path 273" d="M108.933,127.772H96.55a7.8,7.8,0,0,0-7.788,7.788v12.384a7.8,7.8,0,0,0,7.788,7.787h12.384a7.8,7.8,0,0,0,7.788-7.787V135.56A7.8,7.8,0,0,0,108.933,127.772ZM95.594,144.141l3.375,3.111a2.316,2.316,0,0,0,1.85.61,2.427,2.427,0,0,0,1.708-.976l6.039-8.3,5.612,5.917v3.457a5.259,5.259,0,0,1-5.246,5.247H96.55a5.289,5.289,0,0,1-5.246-5.124Zm11.021-7.178-6.039,8.3-3.355-3.09a2.413,2.413,0,0,0-3.254,0L91.3,144.63v-9.07a5.259,5.259,0,0,1,5.246-5.246h12.384a5.258,5.258,0,0,1,5.246,5.246v5.247L110.3,136.72a2.381,2.381,0,0,0-1.891-.732A2.356,2.356,0,0,0,106.615,136.964Z" transform="translate(-88.762 -127.772)" fill="#0f76af"/>
  <path id="Path_274" data-name="Path 274" d="M96.769,132.343a3.253,3.253,0,1,0,3.254,3.253A3.263,3.263,0,0,0,96.769,132.343ZM98.05,135.6a1.281,1.281,0,1,1-1.281-1.281A1.275,1.275,0,0,1,98.05,135.6Z" transform="translate(-88.757 -127.767)" fill="#0f76af"/>
</svg>
