<svg id="location_icon" data-name="location icon" xmlns="http://www.w3.org/2000/svg" width="16.967" height="23.676" viewBox="0 0 16.967 23.676">
  <path id="Path_310" data-name="Path 310" d="M43.1,756.94a8.547,8.547,0,0,0-8.483,8.484,7.786,7.786,0,0,0,1.282,4.439l6.313,10.259a1.215,1.215,0,0,0,.986.494,1.086,1.086,0,0,0,.987-.592l6.215-10.26a8.445,8.445,0,0,0,1.184-4.34A8.547,8.547,0,0,0,43.1,756.94Zm6.215,8.484a6.119,6.119,0,0,1-.888,3.157L43.2,777.36l-5.327-8.681a6.191,6.191,0,1,1,11.443-3.255Z" transform="translate(-34.617 -756.94)" fill="#424242"/>
  <path id="Path_311" data-name="Path 311" d="M43.107,760.988a4.439,4.439,0,1,0,4.439,4.439A4.42,4.42,0,0,0,43.107,760.988Zm2.17,4.439a2.17,2.17,0,1,1-2.17-2.17A2.189,2.189,0,0,1,45.278,765.427Z" transform="translate(-34.62 -756.943)" fill="#424242"/>
</svg>
