<svg id="message_icon" data-name="message icon" xmlns="http://www.w3.org/2000/svg" width="23.595" height="23.733" viewBox="0 0 23.595 23.733">
  <path id="Path_314" data-name="Path 314" d="M264.945,760.069a11.577,11.577,0,0,0-15.489-.9,11.248,11.248,0,0,0-3.3,14.69l-1.4,5a.954.954,0,0,0,.2,1,1.23,1.23,0,0,0,1,.5,5.8,5.8,0,0,0,1.3-.3c.8-.2,2-.5,4.1-1.1a11.852,11.852,0,0,0,4.7,1.2h.5a11.258,11.258,0,0,0,10.693-7.195A11.444,11.444,0,0,0,264.945,760.069Zm-16.389,13.89a1.411,1.411,0,0,0-.1-.9,8.892,8.892,0,0,1,2.3-11.892,9.2,9.2,0,0,1,12.291.4c0,.1.1.1.2.2,3.5,3.9,3,7.695,2,10.093a9.2,9.2,0,0,1-8.994,5.8,9.3,9.3,0,0,1-3.8-.9,2.233,2.233,0,0,0-1-.3h-.2l-3.6.9Z" transform="translate(-244.699 -756.621)" fill="#424242"/>
  <path id="Path_315" data-name="Path 315" d="M252.758,769.769a1.4,1.4,0,1,0-1.4-1.4A1.4,1.4,0,0,0,252.758,769.769Z" transform="translate(-244.704 -756.628)" fill="#424242"/>
  <path id="Path_316" data-name="Path 316" d="M256.558,769.769a1.4,1.4,0,1,0-1.4-1.4A1.4,1.4,0,0,0,256.558,769.769Z" transform="translate(-244.706 -756.628)" fill="#424242"/>
  <path id="Path_317" data-name="Path 317" d="M260.358,769.769a1.4,1.4,0,1,0-1.4-1.4A1.4,1.4,0,0,0,260.358,769.769Z" transform="translate(-244.709 -756.628)" fill="#424242"/>
</svg>
