<svg xmlns="http://www.w3.org/2000/svg" width="21.343" height="24.11" viewBox="0 0 21.343 24.11">
  <g id="Group_196" data-name="Group 196" transform="translate(-319.096 -757.016)">
    <path id="Path_313" data-name="Path 313" d="M337.638,773.033a9.184,9.184,0,0,0-6.62-2.767h-2.667a9.352,9.352,0,0,0-6.62,2.767,9.69,9.69,0,0,0-2.668,6.62,1.142,1.142,0,0,0,1.186,1.186h18.971a1.142,1.142,0,0,0,1.186-1.186A9.788,9.788,0,0,0,337.638,773.033Zm.3,5.434h-16.4a6.9,6.9,0,0,1,6.818-5.829h2.667A7,7,0,0,1,337.935,778.467Z" transform="translate(0.034 0.287)" fill="#424242"/>
    <path id="Path_312" data-name="Path 312" d="M329.734,769.883a6.571,6.571,0,1,0-6.62-6.521A6.537,6.537,0,0,0,329.734,769.883Zm-4.249-6.521a4.249,4.249,0,0,1,8.5,0,4.249,4.249,0,1,1-8.5,0Z" transform="translate(0.038 0.274)" fill="#424242"/>
  </g>
</svg>
