<svg xmlns="http://www.w3.org/2000/svg" width="16.02" height="15.928" viewBox="0 0 16.02 15.928">
  <path id="Pencil_icon" data-name="Pencil icon" d="M241.21,217.27a1.933,1.933,0,0,0-2.8,0l-10.53,10.464a1.482,1.482,0,0,0-.2.333l-.933,3.732a.537.537,0,0,0,.2.6.6.6,0,0,0,.466.2h.134l3.732-.933c.133,0,.2-.067.333-.2L242.144,221a1.919,1.919,0,0,0,.6-1.4,1.813,1.813,0,0,0-.6-1.4Zm-4,3,1.866,1.866-8.264,8.33-2.466.6.6-2.533Zm4-.2-1.133,1.132-1.866-1.866,1.133-1.132a.644.644,0,0,1,.934,0l.933.933A.644.644,0,0,1,241.21,220.069Z" transform="translate(-226.723 -216.67)" fill="#0f76af"/>
</svg>
