<svg xmlns="http://www.w3.org/2000/svg" width="19.652" height="18.515" viewBox="0 0 19.652 18.515">
  <path id="retry_icon" data-name="retry icon" d="M50.4,61.1a.905.905,0,0,0-.892-.833c-.261-.008-.53-.008-.791-.008H47.58l.067-.067.294-.362c.034-.042.059-.067.084-.1A9.808,9.808,0,1,0,30.9,55.073a9.58,9.58,0,0,0,4.635,6.746.9.9,0,0,0,.757.109.85.85,0,0,0,.639-.766.913.913,0,0,0-.5-.925,8.235,8.235,0,0,1-3.213-3.625,8.116,8.116,0,0,1-.538-4.786,8.05,8.05,0,0,1,9.32-6.393,8.035,8.035,0,0,1,6.418,9.6,7.815,7.815,0,0,1-2.086,3.911l-.336.362-.025-.5c0-.05-.008-.093-.008-.135,0-.076-.008-.135-.008-.193V56.864a1.4,1.4,0,0,0-.067-.454.871.871,0,0,0-.85-.6,1.073,1.073,0,0,0-.16.008.893.893,0,0,0-.74.9c-.008,1.438,0,2.885,0,4.29A.942.942,0,0,0,45.2,62.079h4.189a2.237,2.237,0,0,0,.252-.017A.879.879,0,0,0,50.4,61.1Z" transform="translate(-30.75 -43.564)" fill="#424242"/>
</svg>
