<svg id="settings_icon" data-name="settings icon" xmlns="http://www.w3.org/2000/svg" width="29.322" height="29.315" viewBox="0 0 29.322 29.315">
  <path id="Path_789" data-name="Path 789" d="M57.494,52.434H57.04a7.892,7.892,0,0,0-.568-1.477l.341-.341a2.756,2.756,0,0,0,0-4.091l-1.25-1.25a2.756,2.756,0,0,0-4.091,0l-.341.341a7.884,7.884,0,0,0-1.477-.568v-.568a3.193,3.193,0,0,0-3.068-2.954H44.768a3.008,3.008,0,0,0-2.954,2.954v.454a7.889,7.889,0,0,0-1.477.568L40,45.162a2.756,2.756,0,0,0-4.091,0l-1.25,1.25a2.756,2.756,0,0,0,0,4.091l.341.341a7.894,7.894,0,0,0-.568,1.477h-.454a3.008,3.008,0,0,0-2.954,2.954v1.818a3.008,3.008,0,0,0,2.954,2.954h.454c.227.454.341,1.023.568,1.477l-.341.341a2.756,2.756,0,0,0,0,4.091l1.25,1.25a2.755,2.755,0,0,0,4.091,0l.341-.341a7.889,7.889,0,0,0,1.477.568v.454a3.008,3.008,0,0,0,2.954,2.954h1.818a3.008,3.008,0,0,0,2.954-2.954V67.66c.455-.227,1.023-.341,1.477-.568l.341.341a2.756,2.756,0,0,0,4.091,0l1.25-1.25a2.755,2.755,0,0,0,0-4.091l-.341-.341a7.893,7.893,0,0,0,.568-1.477h.454a3.008,3.008,0,0,0,2.954-2.954V55.5A2.809,2.809,0,0,0,57.494,52.434Zm-2.386,6.249a9.647,9.647,0,0,1-1.023,2.5,1.051,1.051,0,0,0,.227,1.363l.909.909a.862.862,0,0,1,.227.454.59.59,0,0,1-.227.454l-1.25,1.25a.848.848,0,0,1-1.023,0l-.909-.909a1.208,1.208,0,0,0-1.364-.227,9.642,9.642,0,0,1-2.5,1.023,1.129,1.129,0,0,0-.8,1.136v1.25a.733.733,0,0,1-.682.682H44.768a.733.733,0,0,1-.682-.682v-1.25a1.129,1.129,0,0,0-.8-1.136,9.644,9.644,0,0,1-2.5-1.023,1.028,1.028,0,0,0-1.363.227l-.909.909a.848.848,0,0,1-1.023,0l-1.25-1.25a.861.861,0,0,1-.227-.454.59.59,0,0,1,.227-.454l.909-.909a1.208,1.208,0,0,0,.227-1.363,9.647,9.647,0,0,1-1.023-2.5,1.129,1.129,0,0,0-1.136-.8h-1.25a.733.733,0,0,1-.682-.682V55.389a.733.733,0,0,1,.682-.682h1.25a1.129,1.129,0,0,0,1.136-.8,9.646,9.646,0,0,1,1.023-2.5,1.051,1.051,0,0,0-.227-1.364l-.909-.909a.861.861,0,0,1-.227-.455.59.59,0,0,1,.227-.454l1.25-1.25a.848.848,0,0,1,1.023,0l.909.909a1.208,1.208,0,0,0,1.363.227,9.648,9.648,0,0,1,2.5-1.023,1.129,1.129,0,0,0,.8-1.136V44.481a.733.733,0,0,1,.682-.682h1.818a.733.733,0,0,1,.682.682v1.25a1.129,1.129,0,0,0,.8,1.136,9.644,9.644,0,0,1,2.5,1.023,1.051,1.051,0,0,0,1.363-.227l.909-.909a.861.861,0,0,1,.454-.227.59.59,0,0,1,.454.227L54.995,48a.848.848,0,0,1,0,1.023l-.909.909a1.208,1.208,0,0,0-.227,1.364,9.642,9.642,0,0,1,1.023,2.5,1.129,1.129,0,0,0,1.136.8h1.25a.733.733,0,0,1,.682.682v1.818a.733.733,0,0,1-.682.682h-1.25A1.444,1.444,0,0,0,55.108,58.684Z" transform="translate(-31.019 -41.526)" fill="#0f76af"/>
  <path id="Path_790" data-name="Path 790" d="M45.687,49.713a6.59,6.59,0,1,0,6.59,6.59A6.6,6.6,0,0,0,45.687,49.713ZM50,56.3a4.318,4.318,0,1,1-4.318-4.318A4.316,4.316,0,0,1,50,56.3Z" transform="translate(-31.023 -41.53)" fill="#0f76af"/>
</svg>
