<svg id="datter_plus_icon" data-name="datter plus icon" xmlns="http://www.w3.org/2000/svg" width="17.786" height="24.133" viewBox="0 0 17.786 24.133">
  <path id="Path_318" data-name="Path 318" d="M193.379,763.993l-4.318-2.37-2.413-4.361a1.072,1.072,0,0,0-.974-.551,1.192,1.192,0,0,0-1.016.551l-2.37,4.318-4.361,2.413a1.168,1.168,0,0,0,0,2.033l4.318,2.371,2.371,4.318a1.167,1.167,0,0,0,2.033,0l2.37-4.318,4.319-2.371a1.141,1.141,0,0,0,.593-1.016A.961.961,0,0,0,193.379,763.993Zm-2.963.974-2.8,1.524a.992.992,0,0,0-.466.466l-1.524,2.8-1.524-2.8a1.233,1.233,0,0,0-.466-.466l-2.8-1.524,2.8-1.524a1,1,0,0,0,.466-.466l1.524-2.795,1.524,2.795a1.24,1.24,0,0,0,.466.466Z" transform="translate(-176.149 -756.711)" fill="#424242"/>
  <path id="Path_319" data-name="Path 319" d="M185.42,775.393l-2.455-1.355-1.355-2.456a.7.7,0,0,0-.636-.339.745.745,0,0,0-.635.339l-1.355,2.456-2.455,1.355a.656.656,0,0,0-.382.635.7.7,0,0,0,.382.636l2.455,1.354,1.355,2.456a.785.785,0,0,0,.635.381.7.7,0,0,0,.636-.381l1.355-2.456,2.455-1.354a.79.79,0,0,0,.382-.636A.729.729,0,0,0,185.42,775.393Zm-1.863.635-1.482.8a1,1,0,0,0-.3.3l-.8,1.482-.8-1.482a.987.987,0,0,0-.3-.3l-1.524-.8,1.524-.8a.975.975,0,0,0,.3-.3l.8-1.481.8,1.524a.986.986,0,0,0,.3.3Z" transform="translate(-176.148 -756.721)" fill="#424242"/>
</svg>
