<svg xmlns="http://www.w3.org/2000/svg" width="28.1" height="28.1" viewBox="0 0 28.1 28.1">
  <g id="whatsapp_logo" data-name="whatsapp logo" transform="translate(0 0)">
    <path id="Path_683" data-name="Path 683" d="M219.561,422.549a13.469,13.469,0,0,0-9.6-4,13.024,13.024,0,0,0-5.2,1,13.656,13.656,0,0,0-4.5,3,13.536,13.536,0,0,0-2.5,15.8l-2.2,6.4a1.4,1.4,0,0,0,.3,1.5,1.284,1.284,0,0,0,1,.4.9.9,0,0,0,.5-.1l6.4-2.2a13.536,13.536,0,0,0,15.8-2.5,13.469,13.469,0,0,0,4-9.6A13.951,13.951,0,0,0,219.561,422.549Zm-1.5,17.8a11.5,11.5,0,0,1-8.2,3.4,11.137,11.137,0,0,1-5.4-1.4,1.672,1.672,0,0,0-1.2-.1l-5.5,1.9,1.9-5.5a1.672,1.672,0,0,0-.1-1.2,11.406,11.406,0,0,1,2-13.6,12.256,12.256,0,0,1,8.3-3.3,11.6,11.6,0,0,1,8.2,19.8Z" transform="translate(-195.461 -418.549)" fill="#424242"/>
    <path id="Path_684" data-name="Path 684" d="M215.061,433.249a1.751,1.751,0,0,0-2.5,0l-.6.6a10.1,10.1,0,0,1-3.7-3.7l.6-.6a1.9,1.9,0,0,0,.5-1.3,2.106,2.106,0,0,0-.5-1.3l-1.8-1.8a1.981,1.981,0,0,0-2.6.1l-1.4,1.4c-.9.9-1,2.4-.2,4.3a16.325,16.325,0,0,0,3.4,4.8,15.773,15.773,0,0,0,4.8,3.4,5.611,5.611,0,0,0,2.3.6,2.49,2.49,0,0,0,1.9-.7l1.5-1.5a1.9,1.9,0,0,0,.5-1.3,2.106,2.106,0,0,0-.5-1.3Zm-1.1,4.3c-.1.1-.8.3-2-.3a15.7,15.7,0,0,1-7.2-7.2c-.5-1.3-.4-1.9-.3-2l1.3-1.3,1.5,1.5-.7.7a1.7,1.7,0,0,0-.3,1.7,11.438,11.438,0,0,0,5.1,5.1,1.384,1.384,0,0,0,1.7-.3l.7-.7,1.5,1.5Z" transform="translate(-195.461 -418.548)" fill="#424242"/>
  </g>
</svg>
